PathFileType   4   (X/Y/Z)
DataRate	CameraRate	NumFrames	NumMarkers	Units	OrigDataRate	OrigDataStartFrame	OrigNumFrames
120.0	120.0	8	37	mm	120.0	1	136
Frame#	Time	midhip	hip_r	hip_l	knee_r	knee_l	ankle_r	ankle_l	midasis	asis_r	asis_l	psis_r	psis_l	epicondLat_r	epicondLat_l	epicondMed_r	epicondMed_l	malleolusLat_r	malleolusLat_l	malleolusMedv_r	malleolusMedv_l	neck	subclavicle_r	subclavicle_l	sternalnotch	xyphoidprocess	thighwand_r	thighwand_l	upperleg1_r	upperleg1_l	upperleg2_r	upperleg2_l	shankwand_r	shankwand_l	lowerleg1_r	lowerleg1_l	toe_r	toe_l
 	 	X1	Y1	Z1	X2	Y2	Z2	X3	Y3	Z3	X4	Y4	Z4	X5	Y5	Z5	X6	Y6	Z6	X7	Y7	Z7	X8	Y8	Z8	X9	Y9	Z9	X10	Y10	Z10	X11	Y11	Z11	X12	Y12	Z12	X13	Y13	Z13	X14	Y14	Z14	X15	Y15	Z15	X16	Y16	Z16	X17	Y17	Z17	X18	Y18	Z18	X19	Y19	Z19	X20	Y20	Z20	X21	Y21	Z21	X22	Y22	Z22	X23	Y23	Z23	X24	Y24	Z24	X25	Y25	Z25	X26	Y26	Z26	X27	Y27	Z27	X28	Y28	Z28	X29	Y29	Z29	X30	Y30	Z30	X31	Y31	Z31	X32	Y32	Z32	X33	Y33	Z33	X34	Y34	Z34	X35	Y35	Z35	X36	Y36	Z36	X37	Y37	Z37

	1	0.23333	1366.792	776.279	-273.296	1341.311	777.589	-195.497	1352.877	783.240	-350.593	1318.760	395.289	-165.221	1409.532	426.918	-324.076	1050.501	162.311	-191.569	1430.832	58.030	-302.579	1475.349	850.677	-260.921	1466.219	846.216	-138.489	1484.479	855.138	-383.353	1231.846	924.649	-237.210	1231.170	924.569	-291.618	1313.068	401.249	-94.197	1417.094	422.838	-395.058	1347.365	389.246	-234.103	1390.370	416.663	-241.824	1040.238	170.023	-155.273	1416.286	55.057	-339.182	1064.502	165.456	-226.452	1428.452	74.345	-262.594	1273.922	1348.825	-272.678	1399.811	1279.992	-233.756	1400.113	1281.230	-316.370	1382.873	1275.758	-287.208	1433.710	1201.125	-287.099	1485.695	557.168	-79.023	1559.557	623.641	-323.488	1451.788	576.881	-107.060	1512.700	632.621	-338.726	1429.902	502.719	-111.340	1503.838	559.848	-332.058	1210.507	191.598	-145.103	1408.945	158.088	-410.916	1185.517	230.723	-159.125	1409.994	172.461	-364.726	1078.562	60.621	-195.540	1531.636	48.593	-316.074
	2	0.24167	1373.642	776.206	-274.427	1348.158	777.566	-196.635	1359.864	782.987	-351.728	1333.784	394.309	-163.464	1412.117	427.100	-324.660	1061.754	166.585	-191.370	1431.063	57.990	-302.558	1482.256	850.556	-262.046	1473.013	846.276	-139.582	1491.499	854.837	-384.510	1238.556	924.391	-238.464	1238.066	924.621	-292.893	1327.892	400.672	-92.492	1419.340	422.760	-395.662	1362.411	387.015	-230.031	1393.088	417.448	-242.450	1051.500	174.389	-155.090	1416.420	55.049	-339.125	1075.318	169.148	-226.125	1427.174	74.560	-262.388	1280.798	1349.214	-273.228	1406.258	1280.365	-234.097	1407.118	1281.429	-316.652	1389.719	1276.017	-287.648	1440.417	1201.344	-287.017	1497.584	560.067	-77.989	1564.550	621.836	-325.142	1463.314	578.587	-105.861	1518.053	631.841	-340.099	1442.969	503.703	-109.107	1508.106	558.692	-333.308	1222.263	192.721	-144.157	1409.580	158.012	-411.135	1196.578	232.350	-158.557	1409.840	172.319	-365.029	1087.797	64.054	-194.451	1531.666	48.538	-316.071
	3	0.25000	1380.293	776.027	-275.460	1354.830	777.438	-197.677	1366.671	782.673	-352.767	1349.076	393.484	-161.893	1414.518	427.235	-325.217	1073.619	170.605	-191.310	1431.250	57.947	-302.543	1489.038	850.253	-263.058	1479.683	846.117	-140.534	1498.393	854.388	-385.581	1245.184	924.137	-239.672	1244.878	924.691	-294.130	1343.022	400.186	-90.966	1421.454	422.664	-396.232	1378.092	387.012	-229.016	1394.552	417.644	-244.075	1063.417	178.424	-155.019	1416.539	55.037	-339.086	1087.671	172.534	-225.910	1426.503	74.724	-262.295	1288.069	1349.396	-273.915	1413.048	1280.916	-234.529	1413.630	1281.573	-317.016	1396.464	1276.222	-287.953	1446.955	1201.604	-287.137	1509.515	563.062	-77.180	1569.385	619.960	-326.582	1475.461	580.667	-104.500	1522.940	630.609	-340.908	1456.288	504.586	-107.896	1511.500	557.207	-334.696	1234.602	193.876	-143.592	1410.211	157.947	-411.357	1210.285	233.306	-158.060	1410.070	172.262	-365.298	1098.449	67.489	-193.303	1531.698	48.484	-316.067
	4	0.25833	1386.768	775.763	-276.392	1361.334	777.226	-198.612	1373.303	782.326	-353.696	1364.556	392.838	-160.524	1416.741	427.314	-325.747	1086.109	174.255	-191.389	1431.410	57.902	-302.535	1495.698	849.795	-263.943	1486.236	845.763	-141.339	1505.161	853.827	-386.547	1251.735	923.918	-240.822	1251.594	924.791	-295.315	1358.409	399.811	-89.630	1423.440	422.542	-396.772	1394.113	387.173	-227.813	1396.486	418.530	-243.389	1075.989	182.017	-155.063	1416.643	55.021	-339.057	1100.329	176.293	-225.983	1427.672	74.682	-262.419	1295.203	1349.638	-274.868	1419.788	1281.235	-234.979	1419.891	1281.809	-317.160	1403.187	1276.387	-288.161	1453.246	1201.810	-287.552	1521.479	566.151	-76.664	1574.072	618.027	-327.809	1487.897	583.118	-103.776	1527.601	628.977	-341.476	1469.766	506.353	-106.878	1514.948	556.262	-335.265	1247.522	195.026	-143.388	1410.801	157.894	-411.566	1223.898	234.824	-157.691	1411.398	172.162	-365.441	1110.536	70.806	-192.155	1531.727	48.434	-316.065
	5	0.26667	1393.090	775.438	-277.214	1367.681	776.957	-199.428	1379.770	781.971	-354.506	1380.140	392.387	-159.366	1418.811	427.333	-326.245	1099.231	177.429	-191.592	1431.558	57.854	-302.535	1502.241	849.223	-264.694	1492.677	845.256	-141.996	1511.806	853.190	-387.392	1258.211	923.758	-241.913	1258.199	924.924	-296.442	1374.000	399.571	-88.493	1425.318	422.389	-397.277	1408.878	387.283	-225.729	1397.200	420.022	-244.030	1089.214	185.065	-155.211	1416.728	55.000	-339.034	1113.496	179.498	-226.215	1428.660	74.659	-262.544	1301.922	1349.718	-275.507	1426.242	1281.272	-234.907	1426.920	1282.211	-317.193	1409.963	1276.514	-288.336	1460.140	1202.111	-287.650	1533.471	569.337	-76.498	1578.619	616.057	-328.835	1499.830	585.454	-103.557	1532.717	627.660	-342.411	1482.879	508.891	-105.917	1518.518	554.998	-336.058	1261.024	196.133	-143.516	1411.322	157.851	-411.751	1237.756	236.536	-157.807	1412.520	172.176	-365.571	1124.038	73.900	-191.070	1531.751	48.386	-316.066
	6	0.27500	1399.279	775.080	-277.906	1373.891	776.659	-200.117	1386.085	781.631	-355.189	1395.751	392.144	-158.423	1420.776	427.297	-326.696	1112.989	180.035	-191.895	1431.701	57.806	-302.541	1508.672	848.581	-265.308	1499.015	844.644	-142.509	1518.327	852.518	-388.108	1264.608	923.677	-242.948	1264.684	925.094	-297.508	1389.737	399.486	-87.556	1427.123	422.206	-397.732	1422.409	386.981	-222.924	1397.847	419.770	-246.710	1103.090	187.478	-155.442	1416.790	54.981	-339.010	1127.196	182.557	-226.617	1428.851	74.768	-262.583	1308.639	1349.746	-275.744	1432.946	1281.145	-234.620	1434.068	1282.124	-317.261	1416.813	1276.575	-288.508	1467.114	1202.003	-287.396	1545.481	572.625	-76.721	1583.042	614.079	-329.678	1510.833	587.716	-103.410	1536.891	626.096	-343.586	1495.655	511.107	-105.051	1521.551	553.077	-337.497	1275.109	197.162	-143.942	1411.761	157.821	-411.903	1251.974	238.232	-157.969	1413.032	172.298	-365.753	1138.902	76.690	-190.110	1531.768	48.340	-316.067
	7	0.28333	1405.352	774.719	-278.452	1379.983	776.364	-200.673	1392.258	781.325	-355.738	1411.322	392.118	-157.694	1422.695	427.211	-327.081	1127.387	182.001	-192.268	1431.838	57.763	-302.552	1514.992	847.918	-265.795	1505.263	843.986	-142.889	1524.722	851.850	-388.700	1270.924	923.684	-243.937	1271.046	925.299	-298.514	1405.567	399.576	-86.817	1428.904	421.996	-398.119	1436.316	387.357	-221.281	1400.520	418.682	-247.049	1117.618	189.189	-155.729	1416.824	54.972	-338.980	1141.285	185.635	-227.155	1428.721	74.897	-262.568	1315.723	1349.805	-276.283	1439.826	1280.993	-234.690	1440.993	1281.919	-317.273	1423.752	1276.577	-288.683	1473.861	1201.749	-287.372	1557.494	576.024	-77.348	1587.363	612.121	-330.360	1521.900	590.212	-103.351	1540.272	624.095	-344.065	1508.713	513.298	-104.779	1524.615	551.780	-338.178	1289.776	198.086	-144.626	1412.121	157.807	-412.017	1266.274	239.761	-157.943	1413.242	172.409	-365.906	1155.057	79.117	-189.330	1531.776	48.293	-316.065
	8	0.29167	1411.323	774.389	-278.853	1385.979	776.100	-201.097	1398.300	781.069	-356.158	1426.798	392.316	-157.175	1424.631	427.086	-327.380	1142.428	183.275	-192.682	1431.963	57.732	-302.563	1521.208	847.283	-266.170	1511.434	843.340	-143.158	1530.982	851.225	-389.182	1277.152	923.780	-244.887	1277.296	925.530	-299.462	1421.436	399.860	-86.277	1430.712	421.763	-398.422	1451.752	388.014	-221.477	1403.727	419.026	-246.032	1132.798	190.152	-156.046	1416.829	54.987	-338.945	1156.588	187.553	-227.655	1428.505	75.083	-262.542	1322.424	1349.798	-277.009	1446.282	1280.738	-234.897	1448.276	1282.013	-317.432	1430.725	1276.537	-288.848	1480.852	1201.720	-287.555	1569.486	579.543	-78.373	1591.617	610.211	-330.911	1533.508	592.789	-104.163	1544.597	622.612	-344.038	1522.054	515.611	-105.485	1528.450	551.444	-338.197	1305.025	198.883	-145.522	1412.428	157.814	-412.095	1282.349	240.649	-158.241	1413.335	172.533	-366.086	1172.420	81.140	-188.768	1531.778	48.242	-316.055
